# xmcd CD database file
# Copyright (C) 1993-1998 Ti Kan
#
# Track frame offsets:
#	150
#	16127
#	32420
#	51962
#	72545
#	90477
#	98855
#	122427
#	149087
#	175600
#	202325
#
# Disc length: 2871 seconds
#
# Revision: 1
# Processed by: cddbd v1.4b41PL1 Copyright (c) Steve Scherf et al.
# Submitted via: NotifyCDPlayer(CDDB) 1.51.1
#
DISCID=940b330b,970b350b
DTITLE=Mike Morgan and the Crawl - The Road
DYEAR=1900
DGENRE=
TTITLE0=The Road
TTITLE1=Bad Luck and Trouble
TTITLE2=No More Clouds
TTITLE3=You're Gonna Miss Me Too
TTITLE4=Born to Boogie
TTITLE5=Wino II
TTITLE6=I'm Blue
TTITLE7=Cold Wind
TTITLE8=You Did Me a Vavor
TTITLE9=No Money Down
TTITLE10=Alexandria, VA.
EXTD=
EXTT0=
EXTT1=
EXTT2=
EXTT3=
EXTT4=
EXTT5=
EXTT6=
EXTT7=
EXTT8=
EXTT9=
EXTT10=
PLAYORDER=
